<svg width="28" height="28" viewBox="0 0 28 28" fill="current" xmlns="http://www.w3.org/2000/svg">
<path fill-rule="evenodd" clip-rule="evenodd" d="M15.7637 21.2306L17.2994 19.6212C17.8414 19.0549 17.8414 18.141 17.2994 17.5747C16.7623 17.0084 15.8827 17.0084 15.3407 17.5747L10.5535 22.5768L15.3407 27.579C15.8827 28.1403 16.7623 28.1403 17.2994 27.579C17.8414 27.0127 17.8414 26.0937 17.2994 25.5274L15.7637 23.923H21.3922C25.0384 23.923 28 20.8233 28 17.0133V6.90467C28 3.09469 25.0384 0 21.3922 0H6.61264C2.9617 0 0 3.09469 0 6.90467V17.0133C0 20.8233 2.9617 23.923 6.61264 23.923H7.92477V21.2306H6.61264C4.3831 21.2306 2.57672 19.3381 2.57672 17.0133V6.90467C2.57672 4.57994 4.3831 2.68744 6.61264 2.68744H21.3922C23.617 2.68744 25.4285 4.57994 25.4285 6.90467V17.0133C25.4285 19.3381 23.617 21.2306 21.3922 21.2306H15.7637Z" fill="current"/>
</svg>
