<svg width="28" height="28" viewBox="0 0 28 28" fill="current" xmlns="http://www.w3.org/2000/svg">
<path fill-rule="evenodd" clip-rule="evenodd" d="M22.6667 23.8382C22.7172 23.8382 22.7632 23.8696 22.7816 23.9273C22.8046 23.9796 22.7911 24.0425 22.7543 24.0844C22.3727 24.5192 21.6092 25.3888 21.6092 25.3888C21.0851 25.9859 21.0851 26.955 21.6092 27.5521C22.1333 28.1493 22.9795 28.1493 23.5036 27.5521C23.5036 27.5521 26.9839 23.592 27.908 22.5339C27.9678 22.4658 28 22.3715 28 22.2772C28 22.1829 27.9678 22.0886 27.908 22.0205C26.9839 20.9624 23.5036 17.0022 23.5036 17.0022C22.9795 16.405 22.1333 16.405 21.6092 17.0022C21.0851 17.5993 21.0851 18.5685 21.6092 19.1656C21.6092 19.1656 22.4139 20.0823 22.8093 20.5328C22.846 20.5747 22.8599 20.6376 22.8369 20.69C22.8185 20.7476 22.7726 20.7791 22.722 20.7791C22.0231 20.7791 20.3865 20.7738 20.3865 20.7738C19.7704 20.7738 19.154 20.4333 18.5057 19.9356C17.6828 19.2966 16.8506 18.3956 16.0047 17.348C16.0047 17.348 15.5082 16.7351 15.2507 16.4155C15.2093 16.3631 15.1542 16.3317 15.0898 16.3317C15.03 16.3265 14.9703 16.3526 14.9289 16.3998C14.5565 16.7926 13.6644 17.7251 13.292 18.118C13.246 18.1651 13.2184 18.228 13.2184 18.2961C13.2138 18.3642 13.237 18.4323 13.2784 18.4847C13.5358 18.8042 14.0323 19.4171 14.0323 19.4171C16.1887 22.0834 18.3864 23.8277 20.3818 23.8277C20.3818 23.8277 21.9816 23.8329 22.6667 23.8382ZM22.7543 3.91698C22.7911 3.95888 22.8046 4.0165 22.7816 4.07412C22.7632 4.12651 22.7172 4.16314 22.6667 4.16314C21.9816 4.16314 20.3818 4.16835 20.3818 4.16835C18.9795 4.16835 17.4853 4.98035 15.9957 6.40517C14.1244 8.19666 12.1839 10.9887 10.2529 13.7912C8.44138 16.4103 6.64397 19.0451 4.89224 20.7214C3.9681 21.6066 3.09885 22.2458 2.22989 22.2458C2.22989 22.2458 0.795402 22.2458 0.229885 22.2458C0.101149 22.2458 0 22.361 0 22.5024C0 23.0838 0 24.4615 0 25.0377C0 25.1111 0.0232759 25.1739 0.0646552 25.2263C0.110632 25.2734 0.165517 25.2997 0.229885 25.2997C0.611494 25.2997 1.34267 25.2997 1.34267 25.2997H2.22989C3.63678 25.2997 5.12672 24.493 6.61638 23.0629C8.48764 21.2714 10.4279 18.4794 12.3635 15.6769C14.1704 13.0578 15.9724 10.4229 17.7241 8.74664C18.6483 7.86137 19.5129 7.22232 20.3818 7.22232H20.3865C20.3865 7.22232 22.0231 7.2171 22.722 7.2171C22.7726 7.2171 22.8185 7.25373 22.8369 7.30611C22.8599 7.3585 22.846 7.42136 22.8093 7.46326C22.4139 7.91899 21.6092 8.83576 21.6092 8.83576C21.0851 9.43292 21.0851 10.3967 21.6092 10.9939C22.1333 11.5911 22.9795 11.5911 23.5036 10.9939C23.5036 10.9939 26.9839 7.0337 27.908 5.97556C27.9678 5.90747 28 5.8185 28 5.71897C28 5.62468 27.9678 5.53037 27.908 5.46227C26.9839 4.40938 23.5036 0.443946 23.5036 0.443946C22.9795 -0.147982 22.1333 -0.147982 21.6092 0.443946C21.0851 1.04111 21.0851 2.01024 21.6092 2.6074C21.6092 2.6074 22.3727 3.47696 22.7543 3.91698ZM1.34267 5.7556H2.22989C3.0023 5.7556 3.77493 6.26891 4.58872 6.99703C5.61861 7.91373 6.66236 9.19196 7.71983 10.6168C7.71983 10.6168 8.18851 11.2506 8.43678 11.5859C8.47356 11.6382 8.53362 11.6696 8.59339 11.6749C8.65316 11.6853 8.71264 11.6592 8.75862 11.6173C9.14483 11.2454 10.069 10.3548 10.4598 9.98286C10.5057 9.93572 10.5335 9.87294 10.5381 9.80484C10.5427 9.73674 10.5242 9.66856 10.4874 9.61618C10.2392 9.28093 9.7658 8.6471 9.7658 8.6471C8.32672 6.70369 6.8921 5.02222 5.50359 3.97979C4.39555 3.14691 3.29195 2.69641 2.22989 2.69641H0V5.7556H1.34267Z" fill="current"/>
</svg>
