<svg width="20" height="20" viewBox="0 0 20 20" fill="current" xmlns="http://www.w3.org/2000/svg">
<path fill-rule="evenodd" clip-rule="evenodd" d="M9.99999 19.6C12.5461 19.6 14.9879 18.5886 16.7882 16.7882C18.5886 14.9879 19.6 12.5461 19.6 10C19.6 7.45392 18.5886 5.01212 16.7882 3.21177C14.9879 1.41143 12.5461 0.4 9.99999 0.4C7.45392 0.4 5.01212 1.41143 3.21177 3.21177C1.41142 5.01212 0.399994 7.45392 0.399994 10C0.399994 12.5461 1.41142 14.9879 3.21177 16.7882C5.01212 18.5886 7.45392 19.6 9.99999 19.6ZM11.2 6.4C11.2 6.08174 11.0736 5.77652 10.8485 5.55147C10.6235 5.32643 10.3183 5.2 9.99999 5.2C9.68173 5.2 9.37651 5.32643 9.15147 5.55147C8.92642 5.77652 8.79999 6.08174 8.79999 6.4V8.8H6.39999C6.08173 8.8 5.77651 8.92643 5.55147 9.15147C5.32642 9.37651 5.19999 9.68174 5.19999 10C5.19999 10.3183 5.32642 10.6235 5.55147 10.8485C5.77651 11.0736 6.08173 11.2 6.39999 11.2H8.79999V13.6C8.79999 13.9183 8.92642 14.2235 9.15147 14.4485C9.37651 14.6736 9.68173 14.8 9.99999 14.8C10.3183 14.8 10.6235 14.6736 10.8485 14.4485C11.0736 14.2235 11.2 13.9183 11.2 13.6V11.2H13.6C13.9183 11.2 14.2235 11.0736 14.4485 10.8485C14.6736 10.6235 14.8 10.3183 14.8 10C14.8 9.68174 14.6736 9.37651 14.4485 9.15147C14.2235 8.92643 13.9183 8.8 13.6 8.8H11.2V6.4Z" fill="current"/>
</svg>
