<svg width="30" height="30" viewBox="0 0 30 30" fill="none" xmlns="http://www.w3.org/2000/svg">
<path d="M16.25 20.6163C16.25 23.0338 18.2162 25 20.6338 25C23.0513 25 25.0175 23.0338 25.0175 20.6163C25.0175 20.395 24.9838 20.1825 24.9513 19.97H25V7.5H27.5V5H23.75C23.4185 5 23.1005 5.1317 22.8661 5.36612C22.6317 5.60054 22.5 5.91848 22.5 6.25V16.6663C21.918 16.3846 21.2803 16.2368 20.6338 16.2338C19.4716 16.2347 18.3574 16.6967 17.5355 17.5184C16.7136 18.34 16.2513 19.4541 16.25 20.6163ZM2.5 6.25H20V8.75H2.5V6.25Z" fill="white" fill-opacity="0.4"/>
<path d="M2.5 11.25H20V13.75H2.5V11.25ZM2.5 16.25H13.75V18.75H2.5V16.25ZM2.5 21.25H13.75V23.75H2.5V21.25Z" fill="white" fill-opacity="0.4"/>
</svg>
