<svg width="20" height="18" viewBox="0 0 20 18" fill="current" xmlns="http://www.w3.org/2000/svg">
<path fill-rule="evenodd" clip-rule="evenodd" d="M1.80641 2.2064C2.70654 1.30653 3.92722 0.801021 5.20001 0.801021C6.47279 0.801021 7.69347 1.30653 8.59361 2.2064L10 3.6116L11.4064 2.2064C11.8492 1.74795 12.3788 1.38227 12.9645 1.13071C13.5501 0.879146 14.1799 0.746732 14.8173 0.741194C15.4546 0.735655 16.0867 0.857104 16.6766 1.09845C17.2665 1.3398 17.8024 1.69621 18.2531 2.1469C18.7038 2.59758 19.0602 3.13351 19.3015 3.72342C19.5429 4.31332 19.6643 4.94538 19.6588 5.58272C19.6533 6.22006 19.5209 6.84992 19.2693 7.43554C19.0177 8.02116 18.6521 8.55081 18.1936 8.9936L10 17.1884L1.80641 8.9936C0.906545 8.09346 0.401031 6.87278 0.401031 5.6C0.401031 4.32721 0.906545 3.10653 1.80641 2.2064Z" fill="current"/>
</svg>
