<svg width="18" height="18" viewBox="0 0 18 18" fill="current" xmlns="http://www.w3.org/2000/svg">
<path fill-rule="evenodd" clip-rule="evenodd" d="M0 9C0 8.44772 0.447715 8 1 8H17C17.5523 8 18 8.44772 18 9C18 9.55228 17.5523 10 17 10H1C0.447715 10 0 9.55228 0 9Z" fill="current"/>
<path fill-rule="evenodd" clip-rule="evenodd" d="M9 -4.37114e-08C9.55228 -1.95703e-08 10 0.447715 10 1L10 17C10 17.5523 9.55228 18 9 18C8.44771 18 8 17.5523 8 17L8 1C8 0.447715 8.44772 -6.78525e-08 9 -4.37114e-08Z" fill="current"/>
</svg>
