<svg width="20" height="20" viewBox="0 0 20 20" fill="current" xmlns="http://www.w3.org/2000/svg">
<path fill-rule="evenodd" clip-rule="evenodd" d="M9.99999 19.6C12.5461 19.6 14.9879 18.5886 16.7882 16.7882C18.5886 14.9879 19.6 12.5461 19.6 9.99999C19.6 7.45392 18.5886 5.01212 16.7882 3.21177C14.9879 1.41142 12.5461 0.399994 9.99999 0.399994C7.45392 0.399994 5.01212 1.41142 3.21177 3.21177C1.41142 5.01212 0.399994 7.45392 0.399994 9.99999C0.399994 12.5461 1.41142 14.9879 3.21177 16.7882C5.01212 18.5886 7.45392 19.6 9.99999 19.6ZM11.2 5.19999C11.2 4.88173 11.0736 4.57651 10.8485 4.35147C10.6235 4.12642 10.3183 3.99999 9.99999 3.99999C9.68173 3.99999 9.37651 4.12642 9.15147 4.35147C8.92642 4.57651 8.79999 4.88173 8.79999 5.19999V9.99999C8.80006 10.3182 8.92653 10.6234 9.15159 10.8484L12.5452 14.2432C12.6567 14.3547 12.789 14.4431 12.9347 14.5035C13.0804 14.5638 13.2365 14.5949 13.3942 14.5949C13.5519 14.5949 13.708 14.5638 13.8537 14.5035C13.9993 14.4431 14.1317 14.3547 14.2432 14.2432C14.3547 14.1317 14.4431 13.9993 14.5035 13.8537C14.5638 13.708 14.5949 13.5519 14.5949 13.3942C14.5949 13.2365 14.5638 13.0804 14.5035 12.9347C14.4431 12.789 14.3547 12.6567 14.2432 12.5452L11.2 9.50319V5.19999Z" fill="current"/>
</svg>
