<svg width="22" height="20" viewBox="0 0 22 20" fill="current" xmlns="http://www.w3.org/2000/svg">
<path d="M10.4188 1.12946C11.0806 0.656696 12 1.12982 12 1.94319V18.0568C12 18.8702 11.0806 19.3433 10.4188 18.8705L5 15H2C0.89543 15 0 14.1046 0 13V7C0 5.89543 0.895431 5 2 5H5L10.4188 1.12946Z" fill="current"/>
<path d="M14.9938 14.9053C16.2347 13.6423 17 11.9105 17 10C17 8.08149 16.2282 6.34323 14.9781 5.0788" stroke="current" stroke-width="2" />
<path d="M17.7782 2.2218C19.7688 4.21241 21 6.96241 21 9.99998C21 13.0375 19.7688 15.7875 17.7782 17.7782" stroke="current" />
</svg>
